<svg width="75" height="75" viewBox="0 0 75 75" fill="none" xmlns="http://www.w3.org/2000/svg">
<path d="M30.6725 37.4999C30.6725 33.7302 33.7295 30.6734 37.5015 30.6734C41.2735 30.6734 44.3321 33.7302 44.3321 37.4999C44.3321 41.2697 41.2735 44.3265 37.5015 44.3265C33.7295 44.3265 30.6725 41.2697 30.6725 37.4999ZM26.98 37.4999C26.98 43.3075 31.6905 48.0151 37.5015 48.0151C43.3125 48.0151 48.023 43.3075 48.023 37.4999C48.023 31.6924 43.3125 26.9848 37.5015 26.9848C31.6905 26.9848 26.98 31.6924 26.98 37.4999ZM45.9807 26.5678C45.9805 27.0538 46.1245 27.529 46.3945 27.9332C46.6645 28.3374 47.0484 28.6526 47.4977 28.8387C47.9469 29.0249 48.4412 29.0738 48.9182 28.9791C49.3953 28.8845 49.8335 28.6506 50.1775 28.3071C50.5215 27.9636 50.7558 27.5258 50.8509 27.0492C50.946 26.5725 50.8975 26.0784 50.7116 25.6293C50.5256 25.1802 50.2106 24.7963 49.8064 24.5261C49.4021 24.256 48.9268 24.1116 48.4405 24.1114H48.4395C47.7877 24.1117 47.1626 24.3706 46.7015 24.8312C46.2405 25.2917 45.9813 25.9164 45.9807 26.5678ZM29.2234 54.1685C27.2257 54.0776 26.1399 53.745 25.4183 53.4641C24.4617 53.0919 23.7791 52.6486 23.0614 51.9323C22.3438 51.2161 21.8996 50.5346 21.5288 49.5785C21.2475 48.8577 20.9147 47.7722 20.8239 45.7757C20.7246 43.6171 20.7047 42.9687 20.7047 37.5001C20.7047 32.0315 20.7262 31.3849 20.8239 29.2245C20.9149 27.228 21.2501 26.1447 21.5288 25.4217C21.9012 24.4656 22.3448 23.7835 23.0614 23.0663C23.7781 22.349 24.46 21.9051 25.4183 21.5345C26.1396 21.2534 27.2257 20.9208 29.2234 20.8301C31.3833 20.7308 32.0321 20.711 37.5015 20.711C42.9709 20.711 43.6204 20.7324 45.782 20.8301C47.7797 20.921 48.8637 21.256 49.5871 21.5345C50.5438 21.9051 51.2264 22.35 51.944 23.0663C52.6617 23.7825 53.1042 24.4656 53.4767 25.4217C53.758 26.1425 54.0907 27.228 54.1815 29.2245C54.2809 31.3849 54.3007 32.0315 54.3007 37.5001C54.3007 42.9687 54.2809 43.6153 54.1815 45.7757C54.0906 47.7722 53.7562 48.8574 53.4767 49.5785C53.1042 50.5346 52.6607 51.2167 51.944 51.9323C51.2273 52.6479 50.5438 53.0919 49.5871 53.4641C48.8659 53.7452 47.7797 54.0778 45.782 54.1685C43.6222 54.2678 42.9734 54.2876 37.5015 54.2876C32.0296 54.2876 31.3826 54.2678 29.2234 54.1685ZM29.0538 17.146C26.8725 17.2453 25.3819 17.5909 24.0802 18.0971C22.7321 18.6199 21.5909 19.3212 20.4505 20.4592C19.3101 21.5971 18.6101 22.7394 18.0871 24.0867C17.5805 25.3885 17.2347 26.8773 17.1353 29.0573C17.0343 31.2407 17.0112 31.9388 17.0112 37.4999C17.0112 43.0611 17.0343 43.7592 17.1353 45.9426C17.2347 48.1228 17.5805 49.6114 18.0871 50.9132C18.6101 52.2596 19.3102 53.4033 20.4505 54.5407C21.5907 55.6782 22.7321 56.3785 24.0802 56.9027C25.3844 57.409 26.8725 57.7546 29.0538 57.8539C31.2397 57.9532 31.937 57.9779 37.5015 57.9779C43.066 57.9779 43.7645 57.9548 45.9492 57.8539C48.1307 57.7546 49.6202 57.409 50.9228 56.9027C52.27 56.3785 53.4121 55.6786 54.5525 54.5407C55.6929 53.4028 56.3914 52.2596 56.9159 50.9132C57.4224 49.6114 57.77 48.1226 57.8677 45.9426C57.967 43.7575 57.9901 43.0611 57.9901 37.4999C57.9901 31.9388 57.967 31.2407 57.8677 29.0573C57.7683 26.8771 57.4224 25.3876 56.9159 24.0867C56.3914 22.7402 55.6911 21.5989 54.5525 20.4592C53.4139 19.3194 52.2701 18.6199 50.9244 18.0971C49.6203 17.5909 48.1305 17.2436 45.9509 17.146C43.7661 17.0467 43.0676 17.022 37.5031 17.022C31.9386 17.022 31.2397 17.0451 29.0538 17.146Z" fill="url(#paint0_radial_2_142)"/>
<path d="M30.6725 37.4999C30.6725 33.7302 33.7295 30.6734 37.5015 30.6734C41.2735 30.6734 44.3321 33.7302 44.3321 37.4999C44.3321 41.2697 41.2735 44.3265 37.5015 44.3265C33.7295 44.3265 30.6725 41.2697 30.6725 37.4999ZM26.98 37.4999C26.98 43.3075 31.6905 48.0151 37.5015 48.0151C43.3125 48.0151 48.023 43.3075 48.023 37.4999C48.023 31.6924 43.3125 26.9848 37.5015 26.9848C31.6905 26.9848 26.98 31.6924 26.98 37.4999ZM45.9807 26.5678C45.9805 27.0538 46.1245 27.529 46.3945 27.9332C46.6645 28.3374 47.0484 28.6526 47.4977 28.8387C47.9469 29.0249 48.4412 29.0738 48.9182 28.9791C49.3953 28.8845 49.8335 28.6506 50.1775 28.3071C50.5215 27.9636 50.7558 27.5258 50.8509 27.0492C50.946 26.5725 50.8975 26.0784 50.7116 25.6293C50.5256 25.1802 50.2106 24.7963 49.8064 24.5261C49.4021 24.256 48.9268 24.1116 48.4405 24.1114H48.4395C47.7877 24.1117 47.1626 24.3706 46.7015 24.8312C46.2405 25.2917 45.9813 25.9164 45.9807 26.5678ZM29.2234 54.1685C27.2257 54.0776 26.1399 53.745 25.4183 53.4641C24.4617 53.0919 23.7791 52.6486 23.0614 51.9323C22.3438 51.2161 21.8996 50.5346 21.5288 49.5785C21.2475 48.8577 20.9147 47.7722 20.8239 45.7757C20.7246 43.6171 20.7047 42.9687 20.7047 37.5001C20.7047 32.0315 20.7262 31.3849 20.8239 29.2245C20.9149 27.228 21.2501 26.1447 21.5288 25.4217C21.9012 24.4656 22.3448 23.7835 23.0614 23.0663C23.7781 22.349 24.46 21.9051 25.4183 21.5345C26.1396 21.2534 27.2257 20.9208 29.2234 20.8301C31.3833 20.7308 32.0321 20.711 37.5015 20.711C42.9709 20.711 43.6204 20.7324 45.782 20.8301C47.7797 20.921 48.8637 21.256 49.5871 21.5345C50.5438 21.9051 51.2264 22.35 51.944 23.0663C52.6617 23.7825 53.1042 24.4656 53.4767 25.4217C53.758 26.1425 54.0907 27.228 54.1815 29.2245C54.2809 31.3849 54.3007 32.0315 54.3007 37.5001C54.3007 42.9687 54.2809 43.6153 54.1815 45.7757C54.0906 47.7722 53.7562 48.8574 53.4767 49.5785C53.1042 50.5346 52.6607 51.2167 51.944 51.9323C51.2273 52.6479 50.5438 53.0919 49.5871 53.4641C48.8659 53.7452 47.7797 54.0778 45.782 54.1685C43.6222 54.2678 42.9734 54.2876 37.5015 54.2876C32.0296 54.2876 31.3826 54.2678 29.2234 54.1685ZM29.0538 17.146C26.8725 17.2453 25.3819 17.5909 24.0802 18.0971C22.7321 18.6199 21.5909 19.3212 20.4505 20.4592C19.3101 21.5971 18.6101 22.7394 18.0871 24.0867C17.5805 25.3885 17.2347 26.8773 17.1353 29.0573C17.0343 31.2407 17.0112 31.9388 17.0112 37.4999C17.0112 43.0611 17.0343 43.7592 17.1353 45.9426C17.2347 48.1228 17.5805 49.6114 18.0871 50.9132C18.6101 52.2596 19.3102 53.4033 20.4505 54.5407C21.5907 55.6782 22.7321 56.3785 24.0802 56.9027C25.3844 57.409 26.8725 57.7546 29.0538 57.8539C31.2397 57.9532 31.937 57.9779 37.5015 57.9779C43.066 57.9779 43.7645 57.9548 45.9492 57.8539C48.1307 57.7546 49.6202 57.409 50.9228 56.9027C52.27 56.3785 53.4121 55.6786 54.5525 54.5407C55.6929 53.4028 56.3914 52.2596 56.9159 50.9132C57.4224 49.6114 57.77 48.1226 57.8677 45.9426C57.967 43.7575 57.9901 43.0611 57.9901 37.4999C57.9901 31.9388 57.967 31.2407 57.8677 29.0573C57.7683 26.8771 57.4224 25.3876 56.9159 24.0867C56.3914 22.7402 55.6911 21.5989 54.5525 20.4592C53.4139 19.3194 52.2701 18.6199 50.9244 18.0971C49.6203 17.5909 48.1305 17.2436 45.9509 17.146C43.7661 17.0467 43.0676 17.022 37.5031 17.022C31.9386 17.022 31.2397 17.0451 29.0538 17.146Z" fill="url(#paint1_radial_2_142)"/>
<defs>
<radialGradient id="paint0_radial_2_142" cx="0" cy="0" r="1" gradientUnits="userSpaceOnUse" gradientTransform="translate(22.4557 58.1714) scale(53.4966 53.4645)">
<stop offset="0.09" stop-color="white"/>
<stop offset="0.78" stop-color="white"/>
</radialGradient>
<radialGradient id="paint1_radial_2_142" cx="0" cy="0" r="1" gradientUnits="userSpaceOnUse" gradientTransform="translate(41.8641 60.0062) scale(42.1627 42.1374)">
<stop offset="0.64" stop-color="white" stop-opacity="0"/>
<stop offset="1" stop-color="white"/>
</radialGradient>
</defs>
</svg>
