<svg width="75" height="75" viewBox="0 0 75 75" fill="none" xmlns="http://www.w3.org/2000/svg">
<path d="M18.7502 54.7502L21.4408 44.7551C19.2709 40.8614 18.5815 36.3179 19.4991 31.9582C20.4167 27.5985 22.8797 23.7151 26.4362 21.0205C29.9927 18.326 34.404 17.0011 38.8608 17.289C43.3176 17.5768 47.5208 19.4581 50.6991 22.5876C53.8775 25.7172 55.8179 29.885 56.1641 34.3263C56.5103 38.7677 55.2392 43.1846 52.5841 46.7666C49.9289 50.3486 46.0678 52.8553 41.7092 53.8269C37.3506 54.7985 32.787 54.1698 28.8557 52.056L18.7502 54.7502ZM29.3429 48.3157L29.9679 48.6855C32.8154 50.369 36.1413 51.0657 39.4272 50.6669C42.7131 50.2682 45.7745 48.7964 48.1343 46.481C50.4941 44.1656 52.0197 41.1366 52.4734 37.8661C52.9272 34.5955 52.2835 31.2671 50.6427 28.3995C49.0019 25.5319 46.4563 23.2863 43.4024 22.0125C40.3485 20.7387 36.9579 20.5084 33.759 21.3573C30.5602 22.2063 27.7327 24.0869 25.7173 26.7061C23.7019 29.3252 22.6117 32.5359 22.6166 35.8376C22.6139 38.5753 23.373 41.26 24.8093 43.5928L25.2012 44.2373L23.697 49.816L29.3429 48.3157Z" fill="white"/>
<path fill-rule="evenodd" clip-rule="evenodd" d="M44.5112 38.4042C44.1449 38.1094 43.7159 37.902 43.257 37.7976C42.7981 37.6932 42.3213 37.6947 41.8631 37.8019C41.1745 38.0872 40.7296 39.1649 40.2848 39.7038C40.1909 39.8329 40.0531 39.9235 39.8971 39.9586C39.7411 39.9936 39.5776 39.9706 39.4373 39.8939C36.9166 38.9092 34.8038 37.1033 33.4419 34.7696C33.3257 34.6239 33.2708 34.439 33.2885 34.2538C33.3063 34.0685 33.3955 33.8974 33.5372 33.7764C34.0334 33.2864 34.3977 32.6796 34.5965 32.0119C34.6406 31.2755 34.4715 30.542 34.1092 29.8988C33.8292 28.997 33.2962 28.1941 32.5733 27.5849C32.2004 27.4176 31.787 27.3615 31.3829 27.4234C30.9788 27.4853 30.6013 27.6624 30.2959 27.9335C29.7657 28.3898 29.3448 28.9589 29.0643 29.5989C28.7839 30.2389 28.6509 30.9335 28.6752 31.6315C28.6768 32.0235 28.7266 32.4139 28.8235 32.7938C29.0695 33.7066 29.4477 34.5786 29.9463 35.3824C30.306 35.9981 30.6985 36.5941 31.1221 37.168C32.4987 39.0529 34.229 40.6533 36.2172 41.8803C37.2148 42.5038 38.2811 43.0108 39.395 43.3912C40.552 43.9144 41.8295 44.1152 43.0918 43.9723C43.811 43.8637 44.4924 43.5805 45.0761 43.1475C45.6598 42.7146 46.1279 42.1451 46.4391 41.4894C46.622 41.0932 46.6775 40.6503 46.598 40.2215C46.4073 39.3445 45.2315 38.8268 44.5112 38.4042Z" fill="white"/>
</svg>
