<svg width="75" height="75" viewBox="0 0 75 75" fill="none" xmlns="http://www.w3.org/2000/svg">
<path d="M56.4709 25.5119C55.2325 26.0448 53.9306 26.416 52.5974 26.6161C53.2207 26.5092 54.1379 25.3872 54.503 24.9331C55.0576 24.2481 55.4803 23.4661 55.7496 22.6268C55.7496 22.5645 55.8119 22.4754 55.7496 22.4309C55.7182 22.4138 55.683 22.4048 55.6472 22.4048C55.6114 22.4048 55.5762 22.4138 55.5448 22.4309C54.0971 23.2149 52.5563 23.8132 50.9589 24.2118C50.9033 24.2288 50.844 24.2304 50.7875 24.2162C50.731 24.2021 50.6795 24.1729 50.6384 24.1317C50.514 23.9836 50.3802 23.8438 50.2377 23.7132C49.5861 23.1294 48.8469 22.6517 48.0471 22.2973C46.9675 21.8544 45.8013 21.6626 44.6367 21.7364C43.5066 21.8077 42.4033 22.1108 41.3954 22.6268C40.4029 23.1708 39.5305 23.9099 38.8309 24.7995C38.0949 25.7152 37.5635 26.7779 37.2726 27.9161C37.0326 28.9988 37.0054 30.1178 37.1924 31.2108C37.1924 31.3978 37.1924 31.4246 37.0321 31.3978C30.6832 30.4629 25.474 28.21 21.2176 23.3748C21.0306 23.1611 20.9326 23.1611 20.7813 23.3748C18.9291 26.1887 19.8285 30.641 22.1437 32.8404C22.4553 33.1342 22.7759 33.4192 23.1143 33.6863C22.0528 33.611 21.0172 33.3233 20.0689 32.8404C19.8908 32.7246 19.7928 32.787 19.7839 33.0007C19.7587 33.297 19.7587 33.5948 19.7839 33.8911C19.9697 35.3111 20.5293 36.6562 21.4055 37.7889C22.2816 38.9216 23.4429 39.8013 24.7705 40.3381C25.0942 40.4767 25.4314 40.5811 25.7767 40.6497C24.794 40.8432 23.7862 40.8733 22.7937 40.7388C22.58 40.6942 22.4998 40.81 22.58 41.0148C23.889 44.5766 26.7295 45.663 28.8132 46.2685C29.0981 46.313 29.3831 46.313 29.7037 46.3843C29.7037 46.3843 29.7037 46.3843 29.6502 46.4377C29.0358 47.5597 26.5514 48.3166 25.4116 48.7084C23.3312 49.4557 21.1131 49.7413 18.9113 49.5454C18.564 49.492 18.4839 49.5009 18.3948 49.5454C18.3058 49.5899 18.3948 49.6879 18.4928 49.7769C18.938 50.0708 19.3832 50.329 19.8463 50.5783C21.2247 51.3302 22.6821 51.9275 24.1917 52.3593C32.0099 54.5142 40.8077 52.9292 46.6758 47.0966C51.2884 42.5197 52.909 36.2063 52.909 29.8841C52.909 29.6436 53.2029 29.5012 53.3721 29.3765C54.539 28.4672 55.5678 27.3934 56.4264 26.1887C56.575 26.0091 56.6513 25.7804 56.6401 25.5475C56.6401 25.414 56.6401 25.4407 56.4709 25.5119Z" fill="white"/>
</svg>
